<?xml version="1.0" standalone="no"?>
<!DOCTYPE svg PUBLIC "-//W3C//DTD SVG 20010904//EN"
 "http://www.w3.org/TR/2001/REC-SVG-20010904/DTD/svg10.dtd">
<svg version="1.0" xmlns="http://www.w3.org/2000/svg"
 width="225.000000pt" height="225.000000pt" viewBox="0 0 225.000000 225.000000"
 preserveAspectRatio="xMidYMid meet">

<g transform="translate(0.000000,225.000000) scale(0.100000,-0.100000)"
fill="#000000" stroke="none">
<path d="M646 2194 c-19 -18 -21 -55 -4 -72 15 -15 64 -16 73 -1 11 17 -3 23
-20 9 -23 -19 -47 -5 -43 27 3 25 7 28 36 26 27 -1 31 1 21 13 -15 19 -44 18
-63 -2z"/>
<path d="M748 2192 c-3 -10 -5 -31 -4 -47 1 -28 4 -30 41 -31 32 -1 34 -1 8 3
-39 5 -46 33 -8 33 14 0 25 5 25 10 0 6 -11 10 -25 10 -14 0 -25 5 -25 10 0 6
14 10 30 10 17 0 30 5 30 10 0 6 -15 10 -34 10 -24 0 -35 -5 -38 -18z"/>
<path d="M840 2160 c0 -55 17 -69 22 -17 l3 32 18 -32 c25 -47 37 -41 37 17 0
28 -4 50 -10 50 -5 0 -10 -15 -10 -32 l0 -33 -21 33 c-12 17 -25 32 -30 32 -5
0 -9 -22 -9 -50z"/>
<path d="M940 2200 c0 -5 7 -10 15 -10 11 0 15 -11 15 -40 0 -22 5 -40 10 -40
6 0 10 18 10 40 0 29 4 40 15 40 8 0 15 5 15 10 0 6 -18 10 -40 10 -22 0 -40
-4 -40 -10z"/>
<path d="M1040 2161 c0 -28 5 -51 10 -51 6 0 10 9 10 20 0 13 7 20 20 20 11 0
20 -6 20 -14 0 -8 4 -18 10 -21 6 -3 9 13 7 42 -2 48 -2 48 -39 51 l-38 3 0
-50z m49 30 c16 -10 6 -31 -15 -31 -8 0 -14 9 -14 20 0 22 7 25 29 11z"/>
<path d="M1147 2203 c-4 -3 -7 -26 -7 -50 l0 -43 42 0 c23 0 38 3 34 7 -4 4
-17 8 -28 8 -12 0 -23 6 -25 13 -3 7 5 12 21 12 14 0 26 5 26 10 0 6 -11 10
-25 10 -22 0 -38 19 -17 21 51 5 66 19 20 19 -19 0 -38 -3 -41 -7z"/>
<path d="M1331 2158 c1 -29 4 -43 6 -30 3 13 12 22 23 22 10 0 22 5 25 10 4 6
-5 10 -20 10 -33 0 -29 22 6 31 21 6 21 7 -8 8 l-33 1 1 -52z"/>
<path d="M1422 2198 c-7 -7 -12 -25 -12 -40 0 -34 41 -59 68 -41 21 12 28 59
11 79 -14 17 -51 18 -67 2z m58 -17 c11 -22 5 -47 -14 -54 -27 -11 -50 26 -34
56 12 23 35 22 48 -2z"/>
<path d="M1530 2160 c0 -32 4 -49 10 -45 6 3 10 13 10 21 0 8 9 14 20 14 13 0
20 -7 20 -20 0 -11 4 -20 10 -20 5 0 8 21 7 48 -2 47 -2 47 -39 50 l-38 3 0
-51z m56 29 c8 -14 -14 -29 -32 -22 -16 6 -7 33 11 33 8 0 17 -5 21 -11z"/>
<path d="M877 2050 l-328 -5 1 -760 c1 -418 3 -773 5 -790 1 -16 3 -83 4 -148
l1 -117 578 2 577 3 -3 890 c-2 490 -6 900 -9 913 l-5 22 -247 -2 c-135 -2
-394 -5 -574 -8z m805 -242 c2 -123 5 -520 6 -884 l2 -661 -307 -6 c-170 -4
-419 -7 -554 -7 l-246 0 -6 542 c-4 298 -7 698 -7 890 l0 348 554 0 555 0 3
-222z"/>
<path d="M1152 1719 c-13 -5 -28 -7 -32 -4 -12 7 -140 -24 -170 -42 -45 -26
-136 -141 -145 -184 -8 -37 1 -108 20 -152 14 -32 14 -31 12 25 -1 32 -6 58
-11 58 -6 0 -1 7 10 15 17 13 17 14 2 15 -22 0 -23 19 -4 65 15 35 29 42 55
26 10 -7 19 0 33 27 10 20 18 46 18 58 0 23 24 49 38 40 5 -3 21 2 37 10 35
18 69 9 62 -17 -3 -10 -1 -19 4 -19 5 0 9 9 9 21 0 11 5 17 10 14 18 -11 10
-53 -16 -84 -28 -34 -18 -43 12 -10 10 11 21 41 24 67 4 39 10 49 34 60 25 13
31 12 55 -5 14 -11 27 -32 29 -47 3 -23 -3 -29 -42 -47 -44 -19 -68 -39 -47
-39 15 0 14 -29 -1 -44 -7 -7 -31 -19 -53 -28 -41 -16 -37 -24 15 -30 48 -6
28 -67 -23 -68 -10 0 -20 -7 -23 -15 -4 -8 -10 -13 -14 -10 -4 3 -10 -4 -13
-15 -3 -11 -12 -20 -21 -20 -9 0 -16 -7 -16 -15 0 -8 -4 -15 -10 -15 -12 0
-13 -37 -2 -44 12 -7 52 5 52 16 0 5 -4 6 -10 3 -5 -3 -15 -3 -21 0 -14 9 19
45 42 45 10 0 22 6 26 14 9 16 100 49 113 41 5 -3 11 -1 15 5 3 5 18 10 33 9
l27 -1 -27 -10 c-16 -5 -28 -13 -27 -16 1 -13 55 -51 81 -57 22 -6 26 -2 32
20 7 26 8 27 26 10 20 -18 20 -17 20 23 0 35 -3 42 -20 42 -13 0 -20 7 -20 19
0 11 -5 23 -10 26 -6 4 -9 1 -8 -6 2 -6 -6 -13 -17 -15 -11 -2 -34 -6 -51 -10
-26 -5 -32 -2 -42 21 -7 14 -12 27 -12 29 0 5 93 30 103 27 5 -1 5 8 2 20 -4
12 0 37 10 58 18 42 9 83 -23 100 -17 9 -18 7 -14 -16 3 -18 1 -24 -7 -19 -6
4 -11 15 -11 25 0 37 -58 66 -98 50z m158 -109 c0 -5 -5 -10 -11 -10 -5 0 -7
5 -4 10 3 6 8 10 11 10 2 0 4 -4 4 -10z m-60 -15 c16 -19 3 -40 -15 -25 -21
17 -35 3 -29 -29 4 -17 1 -32 -6 -36 -16 -10 -21 -3 -26 38 -3 29 0 39 18 51
28 20 42 20 58 1z"/>
<path d="M972 1341 c-11 -7 -11 -9 2 -14 10 -4 16 -1 16 8 0 17 -1 17 -18 6z"/>
<path d="M942 1290 c-16 -27 -15 -30 8 -30 21 0 26 16 12 37 -6 9 -11 7 -20
-7z"/>
<path d="M843 1280 c4 -14 7 -33 7 -42 0 -10 7 -18 15 -18 8 0 24 -9 36 -21
25 -25 39 -17 15 10 -11 12 -14 21 -7 26 6 3 11 13 11 22 0 13 -3 13 -16 2
-13 -11 -19 -8 -41 17 -26 29 -26 29 -20 4z"/>
<path d="M1341 1280 c-5 -3 -4 -10 3 -16 8 -7 16 -5 30 7 18 17 18 18 -3 16
-12 -1 -26 -4 -30 -7z"/>
<path d="M1317 1213 c-23 -6 -12 -23 15 -23 16 0 18 -3 9 -14 -7 -9 -8 -17 -3
-20 11 -7 22 16 22 45 0 19 -8 21 -43 12z"/>
<path d="M911 1154 c0 -11 3 -14 6 -6 3 7 2 16 -1 19 -3 4 -6 -2 -5 -13z"/>
<path d="M900 1110 c0 -12 -9 -25 -22 -30 -20 -9 -19 -9 7 -5 28 5 33 2 48
-30 10 -20 22 -33 28 -29 7 4 3 13 -9 25 -11 10 -23 32 -27 48 -8 37 -25 51
-25 21z"/>
<path d="M1284 1079 c-3 -6 -20 -19 -38 -30 -17 -10 -26 -19 -19 -19 6 0 24
11 40 24 21 18 33 22 46 15 13 -8 15 -6 11 6 -7 17 -30 20 -40 4z"/>
<path d="M1170 1011 c-5 -11 -22 -22 -37 -24 -27 -4 -26 -4 4 -6 21 0 33 -7
36 -18 2 -10 3 -6 1 9 -2 15 3 34 12 43 9 8 11 15 5 15 -6 0 -15 -9 -21 -19z"/>
<path d="M997 1009 c7 -7 15 -10 18 -7 3 3 -2 9 -12 12 -14 6 -15 5 -6 -5z"/>
<path d="M968 983 c7 -3 16 -2 19 1 4 3 -2 6 -13 5 -11 0 -14 -3 -6 -6z"/>
<path d="M840 645 c-8 -9 -8 -15 -2 -15 6 0 13 -12 15 -27 3 -20 4 -15 6 15 1
46 -1 49 -19 27z"/>
<path d="M907 653 c-2 -4 -7 -20 -11 -35 -5 -20 -2 -30 12 -37 27 -14 42 1 39
40 -2 32 -28 53 -40 32z m33 -13 c0 -5 -7 -10 -15 -10 -8 0 -15 5 -15 10 0 6
7 10 15 10 8 0 15 -4 15 -10z m-5 -50 c-5 -8 -11 -8 -17 -2 -6 6 -7 16 -3 22
5 8 11 8 17 2 6 -6 7 -16 3 -22z"/>
<path d="M972 648 c-15 -15 4 -52 25 -44 9 4 13 1 10 -6 -2 -7 -13 -11 -23
-10 -14 3 -16 1 -8 -7 26 -28 58 15 43 57 -9 24 -28 29 -47 10z m33 -16 c0
-18 -20 -15 -23 4 -3 10 1 15 10 12 7 -3 13 -10 13 -16z"/>
<path d="M1056 638 c-20 -28 -20 -38 -2 -38 8 0 17 -6 19 -12 10 -23 24 10 19
42 -5 36 -15 38 -36 8z m14 -18 c0 -5 -5 -10 -11 -10 -5 0 -7 5 -4 10 3 6 8
10 11 10 2 0 4 -4 4 -10z"/>
<path d="M1180 645 c-9 -10 -9 -15 -1 -15 6 0 11 -11 11 -25 0 -14 4 -25 10
-25 5 0 9 18 8 40 -1 43 -8 49 -28 25z"/>
<path d="M1247 653 c-16 -15 -6 -43 14 -43 15 0 19 -5 15 -15 -3 -8 -1 -15 4
-15 16 0 23 49 10 65 -13 16 -32 19 -43 8z m33 -18 c0 -8 -7 -15 -15 -15 -8 0
-15 7 -15 15 0 8 7 15 15 15 8 0 15 -7 15 -15z"/>
<path d="M1327 653 c22 -4 22 -6 8 -33 -17 -34 -18 -40 -6 -40 5 0 11 10 14
23 2 12 8 30 12 40 6 14 2 17 -21 16 -24 -1 -25 -3 -7 -6z"/>
<path d="M1396 635 c-21 -31 -20 -35 4 -35 11 0 20 -6 20 -12 0 -10 2 -10 8 0
10 15 3 72 -8 72 -4 0 -15 -11 -24 -25z m24 -10 c0 -8 -7 -15 -16 -15 -14 0
-14 3 -4 15 7 8 14 15 16 15 2 0 4 -7 4 -15z"/>
<path d="M1120 610 c0 -6 7 -10 15 -10 8 0 15 2 15 4 0 2 -7 6 -15 10 -8 3
-15 1 -15 -4z"/>
<path d="M468 1948 c-2 -19 -10 -24 -40 -26 -55 -5 -47 -19 10 -17 45 1 47 2
50 33 4 36 -15 45 -20 10z"/>
<path d="M1760 1931 c0 -38 17 -49 63 -44 35 5 37 7 37 39 l0 34 -50 0 c-48 0
-50 -1 -50 -29z m47 -15 c-4 -9 -11 -16 -17 -16 -11 0 -14 33 -3 44 11 10 26
-11 20 -28z m38 11 c0 -26 -20 -25 -23 2 -3 16 1 22 10 19 7 -3 13 -12 13 -21z"/>
<path d="M433 1870 c-24 -11 -43 -24 -43 -30 0 -11 32 -26 78 -36 23 -5 25 -3
12 8 -21 18 -24 47 -5 54 15 6 21 25 8 23 -5 0 -27 -9 -50 -19z m17 -25 c0 -8
-7 -15 -15 -15 -26 0 -18 20 13 29 1 1 2 -6 2 -14z"/>
<path d="M1760 1860 c0 -6 7 -13 15 -16 20 -8 19 -34 -2 -51 -16 -13 -16 -14
9 -9 50 11 80 26 75 39 -5 15 -97 50 -97 37z m70 -41 c0 -5 -7 -9 -15 -9 -8 0
-15 7 -15 15 0 9 6 12 15 9 8 -4 15 -10 15 -15z"/>
<path d="M390 1770 c0 -5 15 -10 33 -10 l32 0 -32 -21 c-18 -12 -33 -25 -33
-30 0 -5 23 -9 50 -9 28 0 50 4 50 9 0 5 -13 7 -30 5 -16 -3 -30 -1 -30 3 0 5
14 17 30 26 43 26 37 37 -20 37 -27 0 -50 -4 -50 -10z"/>
<path d="M1764 1734 c-4 -17 -1 -31 9 -41 18 -18 35 -10 47 23 13 32 34 32 26
-1 -4 -15 -2 -25 4 -25 7 0 10 14 8 32 -4 45 -35 51 -49 9 -6 -17 -15 -31 -19
-31 -16 0 -23 21 -11 33 14 14 14 27 1 27 -5 0 -13 -12 -16 -26z"/>
<path d="M402 1658 c-15 -15 -15 -51 0 -66 7 -7 24 -12 38 -12 31 0 50 17 50
45 0 28 -19 45 -50 45 -14 0 -31 -5 -38 -12z m72 -23 c5 -14 -17 -45 -33 -45
-19 0 -44 28 -38 44 8 20 63 22 71 1z"/>
<path d="M1764 1653 c9 -9 96 -10 96 -1 0 4 -23 8 -52 8 -28 0 -48 -3 -44 -7z"/>
<path d="M1770 1600 c-6 -12 -8 -29 -5 -39 6 -20 35 -37 35 -21 0 6 -5 10 -11
10 -6 0 -9 10 -7 23 2 16 11 23 31 25 31 4 46 -20 27 -43 -10 -12 -9 -15 4
-15 22 0 22 65 0 74 -31 12 -63 6 -74 -14z"/>
<path d="M390 1550 c0 -5 23 -10 50 -10 28 0 50 5 50 10 0 6 -22 10 -50 10
-27 0 -50 -4 -50 -10z"/>
<path d="M390 1481 c0 -23 5 -41 11 -41 6 0 9 7 5 15 -4 12 4 15 39 15 25 0
45 5 45 10 0 6 -21 10 -46 10 -25 0 -43 4 -39 9 3 5 1 12 -5 16 -6 4 -10 -9
-10 -34z"/>
<path d="M1767 1473 c-14 -13 -6 -53 12 -62 21 -12 34 -1 45 37 10 30 29 17
22 -14 -8 -30 2 -31 13 -1 10 24 -3 47 -26 47 -8 0 -19 -13 -24 -30 -6 -16
-15 -30 -20 -30 -14 0 -11 48 4 53 8 4 6 6 -4 6 -9 1 -19 -2 -22 -6z"/>
<path d="M433 1420 c-24 -11 -43 -23 -43 -28 0 -13 90 -46 98 -37 4 4 1 10 -5
12 -15 5 -18 53 -3 53 6 0 10 5 10 10 0 13 -7 12 -57 -10z m14 -37 c-3 -3 -11
-2 -17 2 -9 6 -9 10 1 16 14 8 27 -7 16 -18z"/>
<path d="M1775 1370 c-15 -17 -16 -24 -7 -45 11 -25 32 -34 32 -15 0 6 -5 10
-11 10 -6 0 -9 10 -7 23 2 17 10 22 33 22 23 0 31 -5 33 -22 2 -13 -1 -23 -7
-23 -6 0 -11 -5 -11 -11 0 -18 22 -5 31 18 18 50 -49 84 -86 43z"/>
<path d="M390 1321 c0 -6 15 -11 33 -13 l32 -3 -32 -20 c-18 -10 -33 -22 -33
-26 0 -11 33 -15 70 -8 l35 6 -35 2 -35 2 33 27 c18 15 32 30 32 35 0 4 -22 7
-50 7 -27 0 -50 -4 -50 -9z"/>
<path d="M1770 1270 c0 -5 20 -10 45 -10 25 0 45 5 45 10 0 6 -20 10 -45 10
-25 0 -45 -4 -45 -10z"/>
<path d="M1771 1193 c1 -37 2 -37 8 -8 7 35 24 36 30 3 l4 -23 6 23 c9 33 25
31 32 -4 5 -29 5 -28 10 9 l5 37 -48 0 -48 0 1 -37z"/>
<path d="M1775 1129 c-3 -4 9 -9 27 -11 l33 -3 -32 -20 c-47 -28 -42 -45 11
-45 25 0 48 5 51 10 4 6 -9 10 -32 10 l-38 0 38 26 c21 14 36 28 33 32 -9 9
-86 10 -91 1z"/>
<path d="M390 1075 l0 -35 50 0 50 0 -1 38 c-2 30 -3 32 -6 10 -5 -32 -33 -38
-33 -8 0 11 -4 20 -10 20 -5 0 -10 -12 -10 -26 0 -14 -4 -23 -10 -19 -5 3 -10
17 -10 31 0 13 -4 24 -10 24 -5 0 -10 -16 -10 -35z"/>
<path d="M1782 1018 c-15 -15 -16 -64 -1 -73 17 -11 23 3 9 20 -18 21 -5 45
24 45 27 0 54 -34 36 -45 -5 -3 -10 -11 -10 -17 0 -7 6 -6 15 2 20 17 19 43
-3 63 -22 20 -53 22 -70 5z"/>
<path d="M437 990 c-6 -16 -15 -30 -19 -30 -14 0 -19 21 -8 35 8 10 9 15 2 15
-17 0 -24 -19 -18 -46 9 -35 41 -31 55 6 5 17 15 30 20 30 15 0 14 -33 -1 -48
-9 -9 -9 -12 0 -12 18 0 30 33 21 58 -12 31 -39 27 -52 -8z"/>
<path d="M405 904 c-35 -35 10 -92 59 -75 24 9 34 55 15 77 -15 19 -54 18 -74
-2z m73 -30 c3 -22 -18 -33 -50 -26 -18 3 -24 32 -11 46 15 15 58 1 61 -20z"/>
<path d="M1772 878 c1 -37 2 -38 5 -10 5 39 33 45 33 7 0 -14 5 -25 10 -25 6
0 10 11 10 25 0 14 5 25 10 25 6 0 10 -11 10 -25 0 -14 5 -25 11 -25 6 0 9 14
7 33 -3 31 -5 32 -50 35 l-48 3 2 -43z"/>
<path d="M1781 816 c-19 -23 -10 -60 16 -64 17 -3 24 3 29 22 3 14 12 26 20
26 17 0 18 -22 2 -39 -11 -11 -10 -13 2 -9 9 3 15 17 15 34 0 22 -5 30 -21 32
-17 2 -24 -5 -33 -29 -9 -26 -14 -30 -23 -21 -10 10 -10 17 0 33 16 25 10 36
-7 15z"/>
<path d="M428 803 c-16 -2 -28 -7 -29 -11 -7 -62 -7 -62 44 -62 l48 0 -3 37
c-3 40 -10 44 -60 36z m47 -38 c0 -10 -6 -20 -12 -22 -8 -3 -13 5 -13 22 0 17
5 25 13 23 6 -3 12 -13 12 -23z m-37 -2 c-5 -25 -28 -28 -28 -4 0 12 6 21 16
21 9 0 14 -7 12 -17z"/>
<path d="M1833 629 c1 -6 -11 -13 -27 -14 -49 -6 -42 -15 12 -15 50 0 52 1 40
20 -14 21 -30 27 -25 9z"/>
<path d="M400 561 c0 -4 11 -6 25 -3 15 2 25 0 25 -7 0 -6 -11 -17 -25 -23
-41 -19 -31 -38 20 -38 25 0 45 5 45 10 0 6 -15 10 -32 10 l-33 0 33 21 c44
28 40 39 -13 39 -25 0 -45 -4 -45 -9z"/>
<path d="M1774 545 c-9 -23 2 -42 28 -47 35 -6 56 1 63 23 9 26 -2 39 -31 39
-23 0 -29 -9 -25 -39 2 -7 -4 -11 -11 -8 -7 2 -12 14 -11 26 3 24 -5 28 -13 6z
m81 -15 c0 -22 -29 -18 -33 3 -3 14 1 18 15 15 10 -2 18 -10 18 -18z"/>
<path d="M1776 473 c-10 -11 -7 -40 7 -51 7 -6 27 -8 47 -3 29 6 35 11 35 31
0 22 -5 25 -41 27 -23 2 -44 0 -48 -4z m40 -14 c10 -17 -13 -36 -27 -22 -12
12 -4 33 11 33 5 0 12 -5 16 -11z m42 -11 c-6 -18 -28 -21 -28 -4 0 9 7 16 16
16 9 0 14 -5 12 -12z"/>
<path d="M480 410 c0 -5 5 -10 10 -10 6 0 10 5 10 10 0 6 -4 10 -10 10 -5 0
-10 -4 -10 -10z"/>
<path d="M1782 388 c-19 -19 -14 -46 8 -53 26 -8 51 11 43 32 -4 11 -2 14 8
11 8 -3 13 -15 12 -27 -2 -13 1 -20 7 -16 14 8 13 38 -2 53 -7 7 -24 12 -38
12 -14 0 -31 -5 -38 -12z m38 -23 c0 -8 -9 -15 -20 -15 -20 0 -26 11 -13 23
12 13 33 7 33 -8z"/>
<path d="M452 377 c-5 -6 -13 -22 -16 -35 -10 -30 -29 -16 -21 15 4 16 2 22
-5 18 -5 -3 -10 -19 -10 -36 0 -41 37 -41 51 1 6 17 15 30 19 30 13 0 18 -24
8 -42 -5 -11 -5 -18 1 -18 10 0 21 24 21 45 0 21 -36 37 -48 22z"/>
<path d="M1650 164 c0 -13 3 -14 13 -5 8 6 17 8 20 4 13 -12 7 -23 -12 -23
-14 0 -21 -8 -23 -27 -2 -19 -10 -29 -23 -31 -16 -3 -18 -1 -7 9 17 18 15 49
-3 49 -10 0 -15 -10 -15 -29 0 -33 2 -35 43 -45 27 -6 28 -5 25 25 -2 18 2 34
9 36 7 3 13 -10 16 -34 l4 -38 1 38 c2 32 5 37 27 37 26 0 35 -15 13 -22 -8
-3 -7 -12 6 -29 10 -13 17 -18 15 -9 -4 37 2 60 16 60 10 0 15 -11 15 -35 0
-19 5 -35 10 -35 6 0 10 13 10 29 0 16 2 35 5 43 4 10 -8 12 -54 10 -53 -3
-60 -1 -66 17 -8 25 -45 29 -45 5z"/>
<path d="M690 165 c0 -2 10 -10 23 -16 20 -11 21 -11 8 4 -13 16 -31 23 -31
12z"/>
<path d="M1008 149 c-10 -10 -31 -19 -47 -19 -25 0 -28 -3 -23 -25 4 -24 36
-55 55 -55 4 0 7 14 5 32 -2 20 2 33 11 36 10 3 13 -3 9 -27 -3 -18 -1 -34 4
-37 4 -3 8 10 8 29 0 37 17 52 41 36 12 -7 12 -10 1 -18 -12 -7 -12 -12 -1
-30 8 -11 18 -21 23 -21 6 0 6 4 0 10 -14 14 -5 72 10 67 6 -2 13 -14 14 -26
2 -13 12 -26 23 -28 10 -3 19 -9 19 -14 0 -5 4 -9 10 -9 5 0 9 16 7 37 -2 43
13 53 29 18 9 -18 9 -25 0 -28 -7 -3 -4 -12 9 -23 11 -11 16 -15 12 -10 -4 5
-3 14 2 20 16 22 20 45 7 40 -8 -3 -17 -1 -20 5 -7 10 52 27 61 17 3 -3 0 -12
-6 -20 -13 -15 -10 -18 37 -43 21 -11 22 -10 22 28 0 21 5 39 10 39 6 0 10
-19 10 -42 0 -49 7 -48 12 2 4 35 5 35 56 38 59 3 71 -13 17 -24 -19 -3 -35
-11 -35 -16 0 -5 6 -8 13 -5 6 2 18 -5 24 -17 12 -21 13 -21 10 3 -1 13 4 26
11 28 7 3 12 -4 12 -16 0 -41 18 -29 22 14 l3 45 -68 0 c-47 0 -66 3 -61 11 3
6 15 9 25 6 11 -3 17 -1 13 4 -8 14 -42 11 -51 -5 -12 -21 -323 -28 -323 -8 0
9 7 12 20 9 11 -3 18 -1 14 4 -9 15 -38 9 -56 -12z m148 -55 c-5 -13 -10 -14
-18 -6 -6 6 -8 18 -4 28 5 13 10 14 18 6 6 -6 8 -18 4 -28z m162 13 c2 -10 -4
-20 -13 -23 -21 -8 -25 -3 -18 24 6 25 26 24 31 -1z m-338 -1 c0 -8 -4 -18
-10 -21 -5 -3 -10 3 -10 14 0 12 5 21 10 21 6 0 10 -6 10 -14z"/>
<path d="M428 143 c-7 -28 3 -103 13 -103 5 0 9 16 7 35 -2 40 4 50 28 41 13
-5 14 -9 4 -21 -15 -18 3 -47 25 -39 7 3 17 -1 21 -8 6 -9 11 0 14 27 5 37 8
40 38 43 24 2 32 -1 32 -12 0 -9 -7 -16 -16 -16 -10 0 -14 -6 -10 -15 3 -9 -1
-15 -11 -15 -13 0 -13 -3 -3 -15 10 -12 15 -13 21 -4 4 7 14 9 23 6 13 -5 16
1 16 34 0 28 4 39 13 36 6 -2 12 -18 12 -34 0 -17 3 -35 8 -39 4 -4 7 11 7 34
0 40 1 42 30 42 17 0 30 -4 30 -10 0 -5 -9 -10 -21 -10 -11 0 -18 -4 -14 -10
3 -5 12 -7 19 -4 9 3 18 -5 24 -23 10 -27 10 -26 11 15 1 40 2 42 31 42 17 0
30 -4 30 -10 0 -5 -9 -10 -20 -10 -11 0 -20 -5 -20 -11 0 -6 9 -8 20 -4 15 5
20 2 20 -14 0 -41 18 -29 22 14 l3 45 -166 0 c-136 0 -169 3 -179 15 -17 21
-57 19 -62 -2z m52 -3 c12 -8 9 -10 -13 -10 -16 0 -26 4 -22 10 8 12 16 12 35
0z m45 -30 c3 -5 2 -10 -4 -10 -5 0 -13 5 -16 10 -3 6 -2 10 4 10 5 0 13 -4
16 -10z m-15 -30 c-8 -5 -19 -10 -25 -10 -5 0 -3 5 5 10 8 5 20 10 25 10 6 0
3 -5 -5 -10z"/>
</g>
</svg>
