<?xml version="1.0" standalone="no"?>
<!DOCTYPE svg PUBLIC "-//W3C//DTD SVG 20010904//EN"
 "http://www.w3.org/TR/2001/REC-SVG-20010904/DTD/svg10.dtd">
<svg version="1.0" xmlns="http://www.w3.org/2000/svg"
 width="1000.000000pt" height="500.000000pt" viewBox="0 0 1000.000000 500.000000"
 preserveAspectRatio="xMidYMid meet">

<g transform="translate(0.000000,500.000000) scale(0.100000,-0.100000)"
fill="#000000" stroke="none">
<path d="M1765 4589 c-202 -153 -342 -275 -525 -459 -544 -543 -843 -1117
-952 -1825 -25 -168 -36 -582 -19 -775 31 -359 112 -737 242 -1137 l40 -123
334 0 333 0 -108 213 c-263 516 -402 943 -461 1422 -19 150 -16 514 4 665 42
305 129 585 266 865 191 387 416 691 783 1058 104 103 187 187 186 187 -2 -1
-57 -42 -123 -91z"/>
<path d="M2572 4469 c-251 -33 -463 -224 -527 -474 -19 -75 -19 -212 0 -294
25 -102 89 -216 170 -297 242 -243 638 -243 880 0 159 160 221 384 165 600
-78 306 -374 507 -688 465z"/>
<path d="M1341 3698 c-205 -281 -339 -631 -381 -998 -18 -149 -8 -480 19 -636
85 -502 310 -1010 629 -1421 90 -115 226 -258 307 -323 l63 -50 568 1 c313 1
558 4 544 6 -64 11 -256 66 -337 97 -621 237 -1168 734 -1444 1311 -146 306
-209 585 -209 928 0 366 91 730 270 1086 22 45 38 81 36 81 -3 0 -32 -37 -65
-82z"/>
<path d="M6163 3296 c-96 -31 -187 -119 -223 -214 -32 -83 -25 -206 15 -286
35 -70 98 -129 173 -164 49 -23 70 -27 147 -27 77 0 98 4 147 27 73 34 142
104 176 176 22 48 27 71 27 147 0 77 -4 98 -26 146 -36 77 -87 130 -161 169
-55 30 -74 34 -148 37 -52 2 -101 -2 -127 -11z"/>
<path d="M7635 3289 c-217 -30 -433 -163 -549 -338 -90 -134 -115 -242 -116
-488 l0 -163 -120 0 -120 0 0 -230 0 -230 120 0 120 0 0 -785 0 -785 320 0
320 0 0 785 0 785 160 0 160 0 0 230 0 229 -157 3 -158 3 -3 95 c-6 165 23
259 100 324 67 58 142 76 314 76 l144 0 0 250 0 250 -237 -1 c-131 -1 -265 -5
-298 -10z"/>
<path d="M1443 2900 c9 -300 37 -470 113 -699 163 -490 484 -861 964 -1114
238 -125 567 -227 736 -227 l54 0 0 158 0 158 -202 33 c-432 70 -674 154 -895
310 -366 258 -611 730 -738 1425 -14 77 -28 142 -32 145 -3 3 -3 -82 0 -189z"/>
<path d="M4545 2398 c-258 -298 -471 -545 -473 -549 -2 -5 79 -10 179 -11
l183 -3 -3 -425 c-2 -449 5 -572 41 -689 54 -178 160 -308 308 -379 125 -60
201 -72 447 -72 218 1 302 10 438 51 l75 22 0 249 0 250 -32 -28 c-91 -76
-224 -109 -408 -102 -153 7 -205 33 -256 128 -18 33 -19 69 -22 516 l-3 481
137 6 c76 4 235 7 356 7 l218 0 0 225 0 225 -355 0 -355 0 -2 320 -3 319 -470
-541z"/>
<path d="M5950 1285 l0 -1015 325 0 325 0 0 1015 0 1015 -325 0 -325 0 0
-1015z"/>
<path d="M8080 1285 l0 -1015 324 0 325 0 3 488 c3 479 4 488 27 557 38 116
99 221 165 289 115 116 208 152 376 143 74 -3 123 -11 165 -27 81 -30 164 -54
169 -49 2 2 29 105 59 228 l55 224 -49 49 c-30 30 -79 63 -127 86 l-77 37
-135 0 c-126 0 -139 -2 -193 -27 -76 -36 -155 -112 -291 -283 -62 -77 -120
-146 -129 -154 -16 -12 -17 4 -17 228 l0 241 -325 0 -325 0 0 -1015z"/>
</g>
</svg>
